# MagicaVoxel @ Ephtracy

# group
o 

# material
mtllib desert_skull.mtl
usemtl palette

# normals
vn -1 0 0
vn 1 0 0
vn 0 0 1
vn 0 0 -1
vn 0 -1 0
vn 0 1 0

# texcoords
vt 0.955078 0.5
vt 0.970703 0.5
vt 0.982422 0.5
vt 0.986328 0.5

# verts
v -0.8 0.3 0.7
v -0.8 0.3 0.6
v -0.8 0.3 -0.8
v -0.8 0.4 0.7
v -0.8 0.4 0.6
v -0.8 0.6 0.7
v -0.8 0.6 0.6
v -0.8 0.7 0.7
v -0.8 0.7 0.6
v -0.8 0.8 0.7
v -0.8 0.8 0.6
v -0.8 0.9 0.6
v -0.8 0.9 0.5
v -0.8 1 0.6
v -0.8 1 0.5
v -0.8 1.2 0.7
v -0.8 1.2 0.6
v -0.8 1.2 0.5
v -0.8 1.3 0.6
v -0.8 1.3 0.5
v -0.8 1.8 0.7
v -0.8 1.8 -0.8
v -0.6 1.8 0.5
v -0.6 1.8 -0.6
v -0.6 2 0.5
v -0.6 2 -0.6
v -0.5 0 0.7
v -0.5 0 -0.3
v -0.5 0.3 0.7
v -0.5 0.3 0.6
v -0.5 0.3 -0.3
v -0.4 0.8 0.7
v -0.4 0.8 0.6
v -0.4 0.9 0.7
v -0.4 0.9 0.6
v -0.2 0.9 0.7
v -0.2 0.9 0.6
v -0.2 1.2 0.7
v -0.2 1.2 0.6
v -0.1 0 0.7
v -0.1 0 -0.3
v -0.1 0.3 0.7
v -0.1 0.3 -0.3
v 0.2 0.5 0.7
v 0.2 0.5 0.6
v 0.2 0.7 0.7
v 0.2 0.7 0.6
v 0.3 0 0.7
v 0.3 0 -0.3
v 0.3 0.3 0.7
v 0.3 0.3 -0.3
v 0.7 0.8 0.7
v 0.7 0.8 0.6
v 0.7 1.2 0.7
v 0.7 1.2 0.6
v -0.7 0.8 0.7
v -0.7 0.8 0.6
v -0.7 1.2 0.7
v -0.7 1.2 0.6
v -0.3 0 0.7
v -0.3 0 -0.3
v -0.3 0.3 0.7
v -0.3 0.3 -0.3
v -0.2 0.5 0.7
v -0.2 0.5 0.6
v -0.2 0.7 0.7
v -0.2 0.7 0.6
v 0.1 0 0.7
v 0.1 0 -0.3
v 0.1 0.3 0.7
v 0.1 0.3 -0.3
v 0.2 0.9 0.7
v 0.2 0.9 0.6
v 0.2 1.2 0.7
v 0.2 1.2 0.6
v 0.4 0.8 0.7
v 0.4 0.8 0.6
v 0.4 0.9 0.7
v 0.4 0.9 0.6
v 0.5 0 0.7
v 0.5 0 -0.3
v 0.5 0.3 0.7
v 0.5 0.3 0.6
v 0.5 0.3 -0.3
v 0.6 1.8 0.5
v 0.6 1.8 -0.6
v 0.6 2 0.5
v 0.6 2 -0.6
v 0.8 0.3 0.7
v 0.8 0.3 0.6
v 0.8 0.3 -0.8
v 0.8 0.4 0.7
v 0.8 0.4 0.6
v 0.8 0.6 0.7
v 0.8 0.6 0.6
v 0.8 0.7 0.7
v 0.8 0.7 0.6
v 0.8 0.8 0.7
v 0.8 0.8 0.6
v 0.8 0.9 0.6
v 0.8 0.9 0.5
v 0.8 1 0.6
v 0.8 1 0.5
v 0.8 1.2 0.7
v 0.8 1.2 0.6
v 0.8 1.2 0.5
v 0.8 1.3 0.6
v 0.8 1.3 0.5
v 0.8 1.8 0.7
v 0.8 1.8 -0.8
v -0.8 0.3 0.7
v -0.8 0.4 0.7
v -0.8 0.6 0.7
v -0.8 0.7 0.7
v -0.8 0.8 0.7
v -0.8 1.2 0.7
v -0.8 1.8 0.7
v -0.7 0.3 0.7
v -0.7 0.4 0.7
v -0.7 0.5 0.7
v -0.7 0.6 0.7
v -0.7 0.7 0.7
v -0.7 0.8 0.7
v -0.7 1.2 0.7
v -0.7 1.3 0.7
v -0.7 1.4 0.7
v -0.6 0.3 0.7
v -0.6 0.4 0.7
v -0.6 0.5 0.7
v -0.6 0.6 0.7
v -0.6 0.7 0.7
v -0.6 1.3 0.7
v -0.6 1.4 0.7
v -0.5 0 0.7
v -0.5 0.3 0.7
v -0.5 0.4 0.7
v -0.5 0.6 0.7
v -0.5 0.7 0.7
v -0.5 1.3 0.7
v -0.5 1.4 0.7
v -0.4 0.7 0.7
v -0.4 0.8 0.7
v -0.4 0.9 0.7
v -0.4 1.3 0.7
v -0.4 1.4 0.7
v -0.3 0 0.7
v -0.3 0.3 0.7
v -0.3 1.3 0.7
v -0.3 1.4 0.7
v -0.2 0.5 0.7
v -0.2 0.7 0.7
v -0.2 0.8 0.7
v -0.2 0.9 0.7
v -0.2 1.2 0.7
v -0.2 1.3 0.7
v -0.2 1.4 0.7
v -0.1 0 0.7
v -0.1 0.3 0.7
v -0.1 0.9 0.7
v -0.1 1.2 0.7
v 0.1 0 0.7
v 0.1 0.3 0.7
v 0.1 0.9 0.7
v 0.1 1.2 0.7
v 0.2 0.5 0.7
v 0.2 0.7 0.7
v 0.2 0.8 0.7
v 0.2 0.9 0.7
v 0.2 1.2 0.7
v 0.2 1.3 0.7
v 0.2 1.4 0.7
v 0.3 0 0.7
v 0.3 0.3 0.7
v 0.3 1.3 0.7
v 0.3 1.4 0.7
v 0.4 0.7 0.7
v 0.4 0.8 0.7
v 0.4 0.9 0.7
v 0.4 1.3 0.7
v 0.4 1.4 0.7
v 0.5 0 0.7
v 0.5 0.3 0.7
v 0.5 0.4 0.7
v 0.5 0.6 0.7
v 0.5 0.7 0.7
v 0.5 1.3 0.7
v 0.5 1.4 0.7
v 0.6 0.3 0.7
v 0.6 0.4 0.7
v 0.6 0.5 0.7
v 0.6 0.6 0.7
v 0.6 0.7 0.7
v 0.6 1.3 0.7
v 0.6 1.4 0.7
v 0.7 0.3 0.7
v 0.7 0.4 0.7
v 0.7 0.5 0.7
v 0.7 0.6 0.7
v 0.7 0.7 0.7
v 0.7 0.8 0.7
v 0.7 1.2 0.7
v 0.7 1.3 0.7
v 0.7 1.4 0.7
v 0.8 0.3 0.7
v 0.8 0.4 0.7
v 0.8 0.6 0.7
v 0.8 0.7 0.7
v 0.8 0.8 0.7
v 0.8 1.2 0.7
v 0.8 1.8 0.7
v -0.7 0.8 0.6
v -0.7 1.2 0.6
v -0.4 0.8 0.6
v -0.4 0.9 0.6
v -0.2 0.5 0.6
v -0.2 0.7 0.6
v -0.2 0.9 0.6
v -0.2 1.2 0.6
v 0.2 0.5 0.6
v 0.2 0.7 0.6
v 0.2 0.9 0.6
v 0.2 1.2 0.6
v 0.4 0.8 0.6
v 0.4 0.9 0.6
v 0.7 0.8 0.6
v 0.7 1.2 0.6
v -0.6 1.8 0.5
v -0.6 2 0.5
v 0.6 1.8 0.5
v 0.6 2 0.5
v -0.5 0 -0.3
v -0.5 0.3 -0.3
v -0.3 0 -0.3
v -0.3 0.3 -0.3
v -0.1 0 -0.3
v -0.1 0.3 -0.3
v 0.1 0 -0.3
v 0.1 0.3 -0.3
v 0.3 0 -0.3
v 0.3 0.3 -0.3
v 0.5 0 -0.3
v 0.5 0.3 -0.3
v -0.6 1.8 -0.6
v -0.6 2 -0.6
v 0.6 1.8 -0.6
v 0.6 2 -0.6
v -0.8 0.3 -0.8
v -0.8 1.8 -0.8
v 0.8 0.3 -0.8
v 0.8 1.8 -0.8
v -0.5 0 0.7
v -0.3 0 0.7
v -0.1 0 0.7
v 0.1 0 0.7
v 0.3 0 0.7
v 0.5 0 0.7
v -0.5 0 -0.3
v -0.3 0 -0.3
v -0.1 0 -0.3
v 0.1 0 -0.3
v 0.3 0 -0.3
v 0.5 0 -0.3
v -0.8 0.3 0.7
v -0.7 0.3 0.7
v -0.6 0.3 0.7
v -0.5 0.3 0.7
v -0.3 0.3 0.7
v -0.1 0.3 0.7
v 0.1 0.3 0.7
v 0.3 0.3 0.7
v 0.5 0.3 0.7
v 0.6 0.3 0.7
v 0.7 0.3 0.7
v 0.8 0.3 0.7
v -0.8 0.3 0.6
v -0.7 0.3 0.6
v -0.6 0.3 0.6
v -0.5 0.3 0.6
v 0.5 0.3 0.6
v 0.6 0.3 0.6
v 0.7 0.3 0.6
v 0.8 0.3 0.6
v -0.5 0.3 -0.3
v -0.3 0.3 -0.3
v -0.1 0.3 -0.3
v 0.1 0.3 -0.3
v 0.3 0.3 -0.3
v 0.5 0.3 -0.3
v -0.8 0.3 -0.8
v 0.8 0.3 -0.8
v -0.2 0.7 0.7
v 0.2 0.7 0.7
v -0.2 0.7 0.6
v 0.2 0.7 0.6
v -0.7 1.2 0.7
v -0.2 1.2 0.7
v 0.2 1.2 0.7
v 0.7 1.2 0.7
v -0.7 1.2 0.6
v -0.2 1.2 0.6
v 0.2 1.2 0.6
v 0.7 1.2 0.6
v -0.2 0.5 0.7
v 0.2 0.5 0.7
v -0.2 0.5 0.6
v 0.2 0.5 0.6
v -0.7 0.8 0.7
v -0.4 0.8 0.7
v 0.4 0.8 0.7
v 0.7 0.8 0.7
v -0.7 0.8 0.6
v -0.4 0.8 0.6
v 0.4 0.8 0.6
v 0.7 0.8 0.6
v -0.4 0.9 0.7
v -0.2 0.9 0.7
v 0.2 0.9 0.7
v 0.4 0.9 0.7
v -0.4 0.9 0.6
v -0.2 0.9 0.6
v 0.2 0.9 0.6
v 0.4 0.9 0.6
v -0.8 1.8 0.7
v 0.8 1.8 0.7
v -0.6 1.8 0.5
v 0.6 1.8 0.5
v -0.6 1.8 -0.6
v 0.6 1.8 -0.6
v -0.8 1.8 -0.8
v 0.8 1.8 -0.8
v -0.6 2 0.5
v 0.6 2 0.5
v -0.6 2 -0.6
v 0.6 2 -0.6

# faces
f 4/3/1 2/3/1 1/3/1
f 5/2/1 3/2/1 2/2/1
f 5/3/1 2/3/1 4/3/1
f 6/2/1 5/2/1 4/2/1
f 7/2/1 3/2/1 5/2/1
f 7/2/1 5/2/1 6/2/1
f 8/4/1 7/4/1 6/4/1
f 9/2/1 3/2/1 7/2/1
f 9/4/1 7/4/1 8/4/1
f 10/2/1 9/2/1 8/2/1
f 11/2/1 3/2/1 9/2/1
f 11/2/1 9/2/1 10/2/1
f 12/3/1 11/3/1 10/3/1
f 12/2/1 3/2/1 11/2/1
f 13/2/1 3/2/1 12/2/1
f 14/3/1 12/3/1 10/3/1
f 14/4/1 13/4/1 12/4/1
f 15/2/1 3/2/1 13/2/1
f 15/4/1 13/4/1 14/4/1
f 16/3/1 14/3/1 10/3/1
f 17/2/1 15/2/1 14/2/1
f 17/3/1 14/3/1 16/3/1
f 18/2/1 3/2/1 15/2/1
f 18/2/1 15/2/1 17/2/1
f 19/2/1 17/2/1 16/2/1
f 19/4/1 18/4/1 17/4/1
f 20/2/1 3/2/1 18/2/1
f 20/4/1 18/4/1 19/4/1
f 21/2/1 19/2/1 16/2/1
f 21/2/1 20/2/1 19/2/1
f 22/2/1 3/2/1 20/2/1
f 22/2/1 20/2/1 21/2/1
f 25/2/1 24/2/1 23/2/1
f 26/2/1 24/2/1 25/2/1
f 29/2/1 28/2/1 27/2/1
f 30/2/1 28/2/1 29/2/1
f 31/2/1 28/2/1 30/2/1
f 34/3/1 33/3/1 32/3/1
f 35/3/1 33/3/1 34/3/1
f 38/3/1 37/3/1 36/3/1
f 39/3/1 37/3/1 38/3/1
f 42/2/1 41/2/1 40/2/1
f 43/2/1 41/2/1 42/2/1
f 46/2/1 45/2/1 44/2/1
f 47/2/1 45/2/1 46/2/1
f 50/2/1 49/2/1 48/2/1
f 51/2/1 49/2/1 50/2/1
f 54/3/1 53/3/1 52/3/1
f 55/3/1 53/3/1 54/3/1
f 56/3/2 57/3/2 58/3/2
f 58/3/2 57/3/2 59/3/2
f 60/2/2 61/2/2 62/2/2
f 62/2/2 61/2/2 63/2/2
f 64/2/2 65/2/2 66/2/2
f 66/2/2 65/2/2 67/2/2
f 68/2/2 69/2/2 70/2/2
f 70/2/2 69/2/2 71/2/2
f 72/3/2 73/3/2 74/3/2
f 74/3/2 73/3/2 75/3/2
f 76/3/2 77/3/2 78/3/2
f 78/3/2 77/3/2 79/3/2
f 80/2/2 81/2/2 82/2/2
f 82/2/2 81/2/2 83/2/2
f 83/2/2 81/2/2 84/2/2
f 85/2/2 86/2/2 87/2/2
f 87/2/2 86/2/2 88/2/2
f 89/3/2 90/3/2 92/3/2
f 90/2/2 91/2/2 93/2/2
f 92/3/2 90/3/2 93/3/2
f 92/2/2 93/2/2 94/2/2
f 93/2/2 91/2/2 95/2/2
f 94/2/2 93/2/2 95/2/2
f 94/4/2 95/4/2 96/4/2
f 95/2/2 91/2/2 97/2/2
f 96/4/2 95/4/2 97/4/2
f 96/2/2 97/2/2 98/2/2
f 97/2/2 91/2/2 99/2/2
f 98/2/2 97/2/2 99/2/2
f 98/3/2 99/3/2 100/3/2
f 99/2/2 91/2/2 100/2/2
f 100/2/2 91/2/2 101/2/2
f 98/3/2 100/3/2 102/3/2
f 100/4/2 101/4/2 102/4/2
f 101/2/2 91/2/2 103/2/2
f 102/4/2 101/4/2 103/4/2
f 98/3/2 102/3/2 104/3/2
f 102/2/2 103/2/2 105/2/2
f 104/3/2 102/3/2 105/3/2
f 103/2/2 91/2/2 106/2/2
f 105/2/2 103/2/2 106/2/2
f 104/2/2 105/2/2 107/2/2
f 105/4/2 106/4/2 107/4/2
f 106/2/2 91/2/2 108/2/2
f 107/4/2 106/4/2 108/4/2
f 104/2/2 107/2/2 109/2/2
f 107/2/2 108/2/2 109/2/2
f 108/2/2 91/2/2 110/2/2
f 109/2/2 108/2/2 110/2/2
f 118/3/3 112/3/3 111/3/3
f 119/2/3 113/2/3 112/2/3
f 119/3/3 112/3/3 118/3/3
f 120/2/3 113/2/3 119/2/3
f 121/4/3 114/4/3 113/4/3
f 121/2/3 113/2/3 120/2/3
f 122/2/3 115/2/3 114/2/3
f 122/4/3 114/4/3 121/4/3
f 123/3/3 116/3/3 115/3/3
f 123/2/3 115/2/3 122/2/3
f 124/2/3 117/2/3 116/2/3
f 124/3/3 116/3/3 123/3/3
f 125/2/3 117/2/3 124/2/3
f 126/2/3 117/2/3 125/2/3
f 127/2/3 119/2/3 118/2/3
f 128/3/3 120/3/3 119/3/3
f 128/2/3 119/2/3 127/2/3
f 129/2/3 121/2/3 120/2/3
f 129/3/3 120/3/3 128/3/3
f 129/2/3 122/2/3 121/2/3
f 130/2/3 122/2/3 129/2/3
f 131/3/3 123/3/3 122/3/3
f 131/2/3 122/2/3 130/2/3
f 132/3/3 125/3/3 124/3/3
f 132/4/3 126/4/3 125/4/3
f 133/2/3 117/2/3 126/2/3
f 133/4/3 126/4/3 132/4/3
f 135/3/3 128/3/3 127/3/3
f 136/2/3 130/2/3 129/2/3
f 136/2/3 129/2/3 128/2/3
f 136/3/3 128/3/3 135/3/3
f 137/4/3 131/4/3 130/4/3
f 137/2/3 130/2/3 136/2/3
f 138/3/3 123/3/3 131/3/3
f 138/4/3 131/4/3 137/4/3
f 139/3/3 132/3/3 124/3/3
f 139/2/3 133/2/3 132/2/3
f 140/2/3 117/2/3 133/2/3
f 140/2/3 133/2/3 139/2/3
f 141/2/3 135/2/3 134/2/3
f 141/2/3 137/2/3 136/2/3
f 141/3/3 123/3/3 138/3/3
f 141/2/3 138/2/3 137/2/3
f 141/2/3 136/2/3 135/2/3
f 142/3/3 123/3/3 141/3/3
f 144/3/3 139/3/3 124/3/3
f 144/4/3 140/4/3 139/4/3
f 145/2/3 117/2/3 140/2/3
f 145/4/3 140/4/3 144/4/3
f 146/2/3 142/2/3 141/2/3
f 146/2/3 141/2/3 134/2/3
f 147/2/3 142/2/3 146/2/3
f 148/3/3 144/3/3 124/3/3
f 148/2/3 145/2/3 144/2/3
f 149/2/3 117/2/3 145/2/3
f 149/2/3 145/2/3 148/2/3
f 150/2/3 142/2/3 147/2/3
f 151/2/3 142/2/3 150/2/3
f 152/3/3 143/3/3 142/3/3
f 152/2/3 142/2/3 151/2/3
f 153/3/3 143/3/3 152/3/3
f 154/3/3 148/3/3 124/3/3
f 155/4/3 149/4/3 148/4/3
f 155/3/3 148/3/3 154/3/3
f 156/2/3 117/2/3 149/2/3
f 156/4/3 149/4/3 155/4/3
f 158/2/3 150/2/3 147/2/3
f 159/2/3 153/2/3 152/2/3
f 159/3/3 154/3/3 153/3/3
f 159/2/3 152/2/3 151/2/3
f 160/2/3 155/2/3 154/2/3
f 160/3/3 154/3/3 159/3/3
f 160/2/3 156/2/3 155/2/3
f 161/2/3 158/2/3 157/2/3
f 162/2/3 150/2/3 158/2/3
f 162/2/3 158/2/3 161/2/3
f 163/2/3 159/2/3 151/2/3
f 163/2/3 160/2/3 159/2/3
f 164/2/3 156/2/3 160/2/3
f 164/2/3 160/2/3 163/2/3
f 165/2/3 150/2/3 162/2/3
f 166/2/3 163/2/3 151/2/3
f 167/2/3 163/2/3 166/2/3
f 168/3/3 164/3/3 163/3/3
f 168/2/3 163/2/3 167/2/3
f 169/2/3 156/2/3 164/2/3
f 169/3/3 164/3/3 168/3/3
f 170/2/3 156/2/3 169/2/3
f 171/2/3 117/2/3 156/2/3
f 171/2/3 156/2/3 170/2/3
f 173/2/3 165/2/3 162/2/3
f 173/2/3 167/2/3 166/2/3
f 173/2/3 166/2/3 165/2/3
f 174/3/3 170/3/3 169/3/3
f 174/4/3 171/4/3 170/4/3
f 175/2/3 117/2/3 171/2/3
f 175/4/3 171/4/3 174/4/3
f 176/2/3 173/2/3 172/2/3
f 176/2/3 167/2/3 173/2/3
f 177/3/3 168/3/3 167/3/3
f 177/2/3 167/2/3 176/2/3
f 178/3/3 168/3/3 177/3/3
f 179/2/3 175/2/3 174/2/3
f 179/3/3 174/3/3 169/3/3
f 180/2/3 117/2/3 175/2/3
f 180/2/3 175/2/3 179/2/3
f 181/2/3 176/2/3 172/2/3
f 182/2/3 176/2/3 181/2/3
f 183/2/3 176/2/3 182/2/3
f 184/2/3 176/2/3 183/2/3
f 185/3/3 177/3/3 176/3/3
f 185/2/3 176/2/3 184/2/3
f 186/3/3 179/3/3 169/3/3
f 186/4/3 180/4/3 179/4/3
f 187/2/3 117/2/3 180/2/3
f 187/4/3 180/4/3 186/4/3
f 188/3/3 183/3/3 182/3/3
f 189/2/3 184/2/3 183/2/3
f 189/3/3 183/3/3 188/3/3
f 190/2/3 184/2/3 189/2/3
f 191/4/3 185/4/3 184/4/3
f 191/2/3 184/2/3 190/2/3
f 192/3/3 177/3/3 185/3/3
f 192/4/3 185/4/3 191/4/3
f 193/3/3 186/3/3 169/3/3
f 193/2/3 187/2/3 186/2/3
f 194/2/3 117/2/3 187/2/3
f 194/2/3 187/2/3 193/2/3
f 195/2/3 189/2/3 188/2/3
f 196/3/3 190/3/3 189/3/3
f 196/2/3 189/2/3 195/2/3
f 197/2/3 191/2/3 190/2/3
f 197/3/3 190/3/3 196/3/3
f 197/2/3 192/2/3 191/2/3
f 198/2/3 192/2/3 197/2/3
f 199/3/3 177/3/3 192/3/3
f 199/2/3 192/2/3 198/2/3
f 200/3/3 177/3/3 199/3/3
f 201/3/3 193/3/3 169/3/3
f 202/4/3 194/4/3 193/4/3
f 202/3/3 193/3/3 201/3/3
f 203/2/3 117/2/3 194/2/3
f 203/4/3 194/4/3 202/4/3
f 204/3/3 196/3/3 195/3/3
f 205/2/3 198/2/3 197/2/3
f 205/3/3 196/3/3 204/3/3
f 205/2/3 197/2/3 196/2/3
f 206/4/3 199/4/3 198/4/3
f 206/2/3 198/2/3 205/2/3
f 207/2/3 200/2/3 199/2/3
f 207/4/3 199/4/3 206/4/3
f 208/3/3 201/3/3 200/3/3
f 208/2/3 200/2/3 207/2/3
f 209/2/3 202/2/3 201/2/3
f 209/3/3 201/3/3 208/3/3
f 209/2/3 203/2/3 202/2/3
f 210/2/3 117/2/3 203/2/3
f 210/2/3 203/2/3 209/2/3
f 213/1/3 212/1/3 211/1/3
f 214/1/3 212/1/3 213/1/3
f 217/1/3 212/1/3 214/1/3
f 218/1/3 212/1/3 217/1/3
f 219/1/3 216/1/3 215/1/3
f 220/1/3 216/1/3 219/1/3
f 224/1/3 222/1/3 221/1/3
f 225/1/3 224/1/3 223/1/3
f 226/1/3 222/1/3 224/1/3
f 226/1/3 224/1/3 225/1/3
f 229/2/3 228/2/3 227/2/3
f 230/2/3 228/2/3 229/2/3
f 231/2/4 232/2/4 233/2/4
f 233/2/4 232/2/4 234/2/4
f 235/2/4 236/2/4 237/2/4
f 237/2/4 236/2/4 238/2/4
f 239/2/4 240/2/4 241/2/4
f 241/2/4 240/2/4 242/2/4
f 243/2/4 244/2/4 245/2/4
f 245/2/4 244/2/4 246/2/4
f 247/2/4 248/2/4 249/2/4
f 249/2/4 248/2/4 250/2/4
f 257/2/5 252/2/5 251/2/5
f 258/2/5 252/2/5 257/2/5
f 259/2/5 254/2/5 253/2/5
f 260/2/5 254/2/5 259/2/5
f 261/2/5 256/2/5 255/2/5
f 262/2/5 256/2/5 261/2/5
f 275/3/5 264/3/5 263/3/5
f 276/2/5 265/2/5 264/2/5
f 276/3/5 264/3/5 275/3/5
f 277/3/5 266/3/5 265/3/5
f 277/2/5 265/2/5 276/2/5
f 278/3/5 266/3/5 277/3/5
f 279/3/5 272/3/5 271/3/5
f 280/2/5 273/2/5 272/2/5
f 280/3/5 272/3/5 279/3/5
f 281/3/5 274/3/5 273/3/5
f 281/2/5 273/2/5 280/2/5
f 282/3/5 274/3/5 281/3/5
f 283/2/5 276/2/5 275/2/5
f 283/2/5 278/2/5 277/2/5
f 283/2/5 277/2/5 276/2/5
f 284/2/5 268/2/5 267/2/5
f 285/2/5 268/2/5 284/2/5
f 286/2/5 270/2/5 269/2/5
f 287/2/5 270/2/5 286/2/5
f 288/2/5 280/2/5 279/2/5
f 288/2/5 282/2/5 281/2/5
f 288/2/5 281/2/5 280/2/5
f 289/2/5 287/2/5 286/2/5
f 289/2/5 288/2/5 287/2/5
f 289/2/5 283/2/5 275/2/5
f 289/2/5 285/2/5 284/2/5
f 289/2/5 284/2/5 283/2/5
f 289/2/5 286/2/5 285/2/5
f 290/2/5 282/2/5 288/2/5
f 290/2/5 288/2/5 289/2/5
f 293/2/5 292/2/5 291/2/5
f 294/2/5 292/2/5 293/2/5
f 299/3/5 296/3/5 295/3/5
f 300/3/5 296/3/5 299/3/5
f 301/3/5 298/3/5 297/3/5
f 302/3/5 298/3/5 301/3/5
f 303/2/6 304/2/6 305/2/6
f 305/2/6 304/2/6 306/2/6
f 307/3/6 308/3/6 311/3/6
f 311/3/6 308/3/6 312/3/6
f 309/3/6 310/3/6 313/3/6
f 313/3/6 310/3/6 314/3/6
f 315/3/6 316/3/6 319/3/6
f 319/3/6 316/3/6 320/3/6
f 317/3/6 318/3/6 321/3/6
f 321/3/6 318/3/6 322/3/6
f 323/2/6 324/2/6 325/2/6
f 325/2/6 324/2/6 326/2/6
f 323/2/6 325/2/6 327/2/6
f 326/2/6 324/2/6 328/2/6
f 323/2/6 327/2/6 329/2/6
f 327/2/6 328/2/6 329/2/6
f 328/2/6 324/2/6 330/2/6
f 329/2/6 328/2/6 330/2/6
f 331/2/6 332/2/6 333/2/6
f 333/2/6 332/2/6 334/2/6
